<svg xmlns="http://www.w3.org/2000/svg" viewBox="0 0 400 400"><defs><style>.a{fill:#e21f26;}.b{fill:#fff;}</style></defs><rect class="a" width="400" height="400"/><path class="b" d="M200,379.1c-94.08,0-171.38-72.92-178.51-165.19H80.43V326.53H215V213.91H378.5C371.38,306.18,294.07,379.1,200,379.1M215,101.28h90.73V192H215ZM193.06,304.64H102.33V213.91h90.73ZM200,20.89C296.08,20.89,374.7,97,378.89,192H327.58V79.38H193.06V192H102.33V81H80.43V192H21.09C25.29,97,103.92,20.89,200,20.89m195.43,226a201.15,201.15,0,1,0-148.62,148.6,201,201,0,0,0,148.62-148.6"/></svg>