<svg xmlns="http://www.w3.org/2000/svg" viewBox="0 0 375 42.15"><defs><style>.a{fill:#fff;}</style></defs><path class="a" d="M118,191.17c2,0,3-.65,3-1.94s-.88-2.08-2.62-2.08h-9.5v4Zm.16-6.2a2.58,2.58,0,0,0,1.62-.53,1.68,1.68,0,0,0,.71-1.42,1.72,1.72,0,0,0-.66-1.45,2.48,2.48,0,0,0-1.57-.46h-9.39V185Zm2.8.95a3.47,3.47,0,0,1,2.49,3.65c0,2.52-1.83,3.78-5.47,3.78H106.43V178.93h11.65a5.4,5.4,0,0,1,3.28.94,3.5,3.5,0,0,1,1.42,3,3.36,3.36,0,0,1-1.86,3" transform="translate(-12.5 -178.93)"/><rect class="a" x="114.69" y="2.15" width="2.4" height="12.27"/><path class="a" d="M149.06,186.62V187a6,6,0,0,1-2.45,5.08,10.15,10.15,0,0,1-11,0,5.94,5.94,0,0,1,0-9.78,9.25,9.25,0,0,1,5.62-1.66,8.82,8.82,0,0,1,6.73,2.85l-2.25,1.12a6.47,6.47,0,0,0-4.63-1.79,6.65,6.65,0,0,0-3.77,1.06,3.92,3.92,0,0,0,0,6.6,6.62,6.62,0,0,0,3.79,1q3.78,0,5-2.74h-5.52v-2.18Z" transform="translate(-12.5 -178.93)"/><path class="a" d="M167.82,186.62V187a6,6,0,0,1-2.46,5.08,9,9,0,0,1-5.54,1.64,9.12,9.12,0,0,1-5.48-1.61,5.94,5.94,0,0,1,0-9.78,9.25,9.25,0,0,1,5.62-1.66,8.85,8.85,0,0,1,6.74,2.85l-2.25,1.12a6.47,6.47,0,0,0-4.63-1.79,6.68,6.68,0,0,0-3.78,1.06,3.92,3.92,0,0,0,0,6.6,6.62,6.62,0,0,0,3.79,1q3.77,0,5-2.74H159.3v-2.18Z" transform="translate(-12.5 -178.93)"/><path class="a" d="M182.07,184.12a11,11,0,0,0-5.2-1.27c-2.72,0-4.08.49-4.08,1.46,0,.63.51,1,1.53,1.12l4.18.38a12.46,12.46,0,0,1,3.72.78,3,3,0,0,1,2,2.91,3.51,3.51,0,0,1-2.43,3.39,11.49,11.49,0,0,1-4.44.74,12.19,12.19,0,0,1-7.55-2.15l1.3-1.7a10.59,10.59,0,0,0,6.2,1.76,9.53,9.53,0,0,0,2.6-.32q1.74-.48,1.74-1.62c0-.65-.47-1.11-1.4-1.37a11.27,11.27,0,0,0-2.4-.3c-1.69-.08-2.73-.14-3.13-.18a8.23,8.23,0,0,1-3-.74,2.6,2.6,0,0,1-1.45-2.44,3.25,3.25,0,0,1,2.37-3.1,11,11,0,0,1,4.19-.7,11.52,11.52,0,0,1,6.71,1.79Z" transform="translate(-12.5 -178.93)"/><path class="a" d="M204.49,185.66c1.85,0,2.78-.74,2.78-2.2s-1-2.35-2.94-2.35h-8.46v4.55Zm.43-6.73a5,5,0,0,1,3.45,1.16,4.25,4.25,0,0,1,1.36,3.33,4,4,0,0,1-1.52,3.42,6.21,6.21,0,0,1-3.75,1h-8.59v5.51h-2.4V178.93Z" transform="translate(-12.5 -178.93)"/><path class="a" d="M224.78,187.18a3.78,3.78,0,0,0-1.81-3.29,6.68,6.68,0,0,0-3.78-1,6.82,6.82,0,0,0-3.8,1,3.94,3.94,0,0,0,0,6.64,6.83,6.83,0,0,0,3.82,1,6.74,6.74,0,0,0,3.8-1,3.81,3.81,0,0,0,1.79-3.35m2.45,0a5.84,5.84,0,0,1-2.57,4.92,10.17,10.17,0,0,1-11,0,5.91,5.91,0,0,1,0-9.78,9.84,9.84,0,0,1,10.94,0,5.78,5.78,0,0,1,2.59,4.86" transform="translate(-12.5 -178.93)"/><polygon class="a" points="236.55 2.15 232.38 14.42 229.51 14.42 226.59 4.15 223.67 14.42 220.8 14.42 216.62 2.15 219.27 2.15 222.22 12.35 225.15 2.15 228.03 2.15 230.95 12.35 233.9 2.15 236.55 2.15"/><polygon class="a" points="252.22 14.42 239.03 14.42 239.03 2.15 251.77 2.15 251.77 4.33 241.43 4.33 241.43 6.98 248.62 6.98 248.62 9.16 241.43 9.16 241.43 12.24 252.22 12.24 252.22 14.42"/><polygon class="a" points="267.18 14.42 255.32 14.42 255.32 2.15 257.71 2.15 257.71 12.24 267.18 12.24 267.18 14.42"/><polygon class="a" points="281.07 14.42 269.21 14.42 269.21 2.15 271.6 2.15 271.6 12.24 281.07 12.24 281.07 14.42"/><rect class="a" y="25.92" width="2.4" height="14.42"/><polygon class="a" points="21.19 40.34 17.62 40.34 9.3 30.11 9.3 40.34 6.9 40.34 6.9 28.07 10.48 28.07 18.8 38.27 18.8 28.07 21.19 28.07 21.19 40.34"/><polygon class="a" points="37.7 30.25 31.84 30.25 31.84 40.34 29.45 40.34 29.45 30.25 23.59 30.25 23.59 28.07 37.7 28.07 37.7 30.25"/><polygon class="a" points="53.28 40.34 40.09 40.34 40.09 28.07 52.82 28.07 52.82 30.25 42.48 30.25 42.48 32.89 49.67 32.89 49.67 35.08 42.48 35.08 42.48 38.16 53.28 38.16 53.28 40.34"/><path class="a" d="M78.41,212.57c1.45,0,2.17-.55,2.17-1.65s-.77-1.75-2.31-1.75h-7v3.4Zm4.89,6.69H80.55l-3.22-4.51H71.27v4.51h-2.4V207h9.9a4.5,4.5,0,0,1,3,1A3.54,3.54,0,0,1,83,210.88,3.5,3.5,0,0,1,80,214.62Z" transform="translate(-12.5 -178.93)"/><rect class="a" x="74.19" y="28.07" width="2.4" height="12.27"/><path class="a" d="M106.19,213.1a3.81,3.81,0,0,0-1.8-3.3,6.73,6.73,0,0,0-3.78-1,6.87,6.87,0,0,0-3.81,1,3.95,3.95,0,0,0,0,6.64,6.79,6.79,0,0,0,3.83,1,6.71,6.71,0,0,0,3.8-1,3.8,3.8,0,0,0,1.78-3.34m2.46,0a5.84,5.84,0,0,1-2.57,4.91,9,9,0,0,1-5.49,1.61A9.1,9.1,0,0,1,95.08,218a5.81,5.81,0,0,1-2.56-4.91,5.74,5.74,0,0,1,2.59-4.86,9.84,9.84,0,0,1,10.94,0,5.76,5.76,0,0,1,2.6,4.86" transform="translate(-12.5 -178.93)"/><path class="a" d="M121.64,212.57c1.44,0,2.17-.55,2.17-1.65s-.77-1.75-2.31-1.75h-7v3.4Zm4.89,6.69h-2.75l-3.22-4.51h-6.07v4.51H112.1V207H122a4.5,4.5,0,0,1,3,1,3.57,3.57,0,0,1,1.24,2.89,3.5,3.5,0,0,1-3,3.74Z" transform="translate(-12.5 -178.93)"/><path class="a" d="M146,217.08a5.06,5.06,0,0,0,3.42-8.66,5.48,5.48,0,0,0-3.88-1.4h-7v10.06Zm-.67-12.24a8.82,8.82,0,0,1,5.83,1.85,6.84,6.84,0,0,1,2.35,5.52,6.48,6.48,0,0,1-2.31,5.14,8,8,0,0,1-5.41,1.91h-9.59V204.84Z" transform="translate(-12.5 -178.93)"/><polygon class="a" points="157.7 40.34 144.5 40.34 144.5 28.07 157.24 28.07 157.24 30.25 146.9 30.25 146.9 32.89 154.09 32.89 154.09 35.08 146.9 35.08 146.9 38.16 157.7 38.16 157.7 40.34"/><path class="a" d="M183.9,210a10.83,10.83,0,0,0-5.19-1.27c-2.73,0-4.09.48-4.09,1.45,0,.63.51,1,1.54,1.13s2.31.21,4.17.37a12.79,12.79,0,0,1,3.72.78,3,3,0,0,1,2,2.91,3.53,3.53,0,0,1-2.43,3.4,11.47,11.47,0,0,1-4.44.73,12.21,12.21,0,0,1-7.55-2.15l1.29-1.7a10.57,10.57,0,0,0,6.21,1.76,9.68,9.68,0,0,0,2.61-.31c1.15-.32,1.72-.86,1.72-1.62s-.46-1.11-1.38-1.38a12.89,12.89,0,0,0-2.41-.3c-1.69-.08-2.73-.14-3.13-.17a8.51,8.51,0,0,1-3-.74,2.63,2.63,0,0,1-1.45-2.45,3.26,3.26,0,0,1,2.37-3.1,11.06,11.06,0,0,1,4.19-.7,11.45,11.45,0,0,1,6.71,1.8Z" transform="translate(-12.5 -178.93)"/><rect class="a" x="176.51" y="28.07" width="2.39" height="12.27"/><path class="a" d="M210.88,212.54v.38a6,6,0,0,1-2.45,5.07,10.15,10.15,0,0,1-11,0,5.93,5.93,0,0,1,0-9.77,9.18,9.18,0,0,1,5.62-1.66,8.85,8.85,0,0,1,6.74,2.85l-2.26,1.11a6.45,6.45,0,0,0-4.63-1.78,6.67,6.67,0,0,0-3.77,1,3.91,3.91,0,0,0,0,6.6,6.6,6.6,0,0,0,3.79,1c2.51,0,4.18-.9,5-2.73h-5.53v-2.18Z" transform="translate(-12.5 -178.93)"/><polygon class="a" points="216.13 40.34 212.56 40.34 204.24 30.11 204.24 40.34 201.84 40.34 201.84 28.07 205.42 28.07 213.73 38.27 213.73 28.07 216.13 28.07 216.13 40.34"/><path class="a" d="M244.25,210.48c1.84-.22,2.76-1,2.76-2.26a1.41,1.41,0,0,0-.49-1.11,1.7,1.7,0,0,0-1.15-.42,1.8,1.8,0,0,0-1.34.52,1.83,1.83,0,0,0-.51,1.33,3.82,3.82,0,0,0,.73,1.94m2.42,6a26.74,26.74,0,0,1-3.44-3.74q-4,.6-4,2.57a1.86,1.86,0,0,0,1.31,1.75,6,6,0,0,0,2.34.41,8.82,8.82,0,0,0,3.76-1m6.93,2.9a12.55,12.55,0,0,1-5.24-1.44,9.9,9.9,0,0,1-5.68,1.62,7.29,7.29,0,0,1-3.89-1,3.7,3.7,0,0,1-1.93-3.3c0-2.1,1.67-3.54,5-4.34a4.52,4.52,0,0,1-.72-2.39,3.5,3.5,0,0,1,.77-2.21,4.23,4.23,0,0,1,3.51-1.67,4.09,4.09,0,0,1,2.8,1,3.33,3.33,0,0,1,1.11,2.64c0,1.9-1.26,3.21-3.76,3.94a20.13,20.13,0,0,0,2.89,3,7.34,7.34,0,0,0,2.07-3.44H253a11.46,11.46,0,0,1-2.79,4.7,8.26,8.26,0,0,0,3.39.72Z" transform="translate(-12.5 -178.93)"/><path class="a" d="M273.85,213.91,270.21,207l-3.72,6.95Zm5.48,5.42h-2.61L275,216.09h-9.7l-1.68,3.24h-2.6l7.63-14.42h3Z" transform="translate(-12.5 -178.93)"/><polygon class="a" points="283.52 40.4 279.95 40.4 271.63 30.18 271.63 40.4 269.23 40.4 269.23 28.14 272.82 28.14 281.13 38.34 281.13 28.14 283.52 28.14 283.52 40.4"/><polygon class="a" points="300.03 30.32 294.17 30.32 294.17 40.4 291.77 40.4 291.77 30.32 285.92 30.32 285.92 28.14 300.03 28.14 300.03 30.32"/><rect class="a" x="302.41" y="28.14" width="2.4" height="12.27"/><path class="a" d="M331.61,217a4,4,0,0,0,2.81-3.86,3.81,3.81,0,0,0-1.81-3.32,7.37,7.37,0,0,0-7.58,0,4,4,0,0,0,0,6.65,6.76,6.76,0,0,0,3.83,1h.36l-1.35-1.43,2.28-.67Zm-.63,2.42a10.4,10.4,0,0,1-2.16.24,9,9,0,0,1-5.5-1.63,5.95,5.95,0,0,1,0-9.79,10,10,0,0,1,11,0,5.83,5.83,0,0,1,2.58,4.89,6,6,0,0,1-3.65,5.55l1.54,1.67-2.27.68Z" transform="translate(-12.5 -178.93)"/><path class="a" d="M354.43,215.31a3.73,3.73,0,0,1-2.55,3.5,12.2,12.2,0,0,1-9.15,0,3.73,3.73,0,0,1-2.56-3.5v-8.25h2.4v7.75q0,2.72,4.74,2.72t4.73-2.72v-7.75h2.39Z" transform="translate(-12.5 -178.93)"/><polygon class="a" points="359.18 40.4 345.98 40.4 345.98 28.14 358.72 28.14 358.72 30.32 348.38 30.32 348.38 32.97 355.57 32.97 355.57 35.14 348.38 35.14 348.38 38.23 359.18 38.23 359.18 40.4"/><path class="a" d="M385.38,210.11a10.89,10.89,0,0,0-5.19-1.27c-2.73,0-4.09.49-4.09,1.46,0,.62.51,1,1.54,1.12s2.31.2,4.17.37a12.39,12.39,0,0,1,3.72.78,3,3,0,0,1,2,2.91,3.52,3.52,0,0,1-2.43,3.4,11.44,11.44,0,0,1-4.44.73,12.21,12.21,0,0,1-7.55-2.15l1.29-1.69a10.65,10.65,0,0,0,6.21,1.76,9.71,9.71,0,0,0,2.61-.32c1.15-.32,1.72-.86,1.72-1.63s-.46-1.1-1.39-1.37a11.17,11.17,0,0,0-2.4-.3c-1.69-.07-2.73-.13-3.13-.17a8.51,8.51,0,0,1-3-.74,2.61,2.61,0,0,1-1.45-2.45,3.26,3.26,0,0,1,2.37-3.1,11,11,0,0,1,4.19-.7,11.5,11.5,0,0,1,6.72,1.8Z" transform="translate(-12.5 -178.93)"/></svg>